<svg version="1.0" xmlns="http://www.w3.org/2000/svg"
 width="1156.000000pt" height="1244.000000pt" viewBox="0 0 1156.000000 1244.000000"
 preserveAspectRatio="xMidYMid meet">

<g transform="translate(0.000000,1244.000000) scale(0.100000,-0.100000)"
fill="#0d6efd" stroke="none">
<path d="M1210 7085 l0 -4495 4500 0 4500 0 0 4495 0 4495 -4500 0 -4500 0 0
-4495z m3915 2878 c7 -20 478 -1270 817 -2173 124 -327 316 -850 429 -1162
160 -444 208 -568 221 -568 13 0 16 7 12 33 -8 52 -93 732 -124 993 -28 233
-49 441 -71 709 -6 76 -13 558 -16 1158 l-5 1027 741 0 741 0 0 -2925 0 -2925
-783 0 -784 0 -511 1363 c-428 1140 -893 2396 -935 2525 -14 42 -49 46 -42 5
3 -16 14 -113 26 -218 11 -104 36 -309 55 -455 130 -1002 134 -1070 134 -2352
l0 -868 -740 0 -740 0 0 2925 0 2925 784 0 c737 0 784 -1 791 -17z"/>
</g>
</svg>